PathFileType	4	(X/Y/Z)	E:\MAC3D_DATA\2020_06_02_vinay\TPose1.trc																																																																
DataRate	CameraRate	NumFrames	NumMarkers	Units	OrigDataRate	OrigDataStartFrame	OrigNumFrames																																																												
1000	200	9	22	mm	200	250	498																																																												
Frame#	Time	RAsis			LAsis			RPsi			LPsi			RThigh1			RThigh2			RThigh3			RKneeOut			RKneeIn			LThigh1			LThigh2			LThigh3			LKneeOut			LKneeIn			MidAsis			MidPsi			MidPelvis			RHJC			LHJC			MidHJC			RKJC			LKJC		
		X1	Y1	Z1	X2	Y2	Z2	X3	Y3	Z3	X4	Y4	Z4	X5	Y5	Z5	X6	Y6	Z6	X7	Y7	Z7	X8	Y8	Z8	X9	Y9	Z9	X10	Y10	Z10	X11	Y11	Z11	X12	Y12	Z12	X13	Y13	Z13	X14	Y14	Z14	X15	Y15	Z15	X16	Y16	Z16	X17	Y17	Z17	X18	Y18	Z18	X19	Y19	Z19	X20	Y20	Z20	X21	Y21	Z21	X22	Y22	Z22
																																																																			
250	1.245	82.5996	1583.09	195.304	83.1918	1582.63	-78.5405	205.614	1531.87	59.0241	58.6408	1602.14	55.1442	6.28905	1486.57	62.4262	239.614	1026.54	194.33	250.573	1031.74	-47.5197	51.9663	1069.77	115.829	52.1715	1066.46	20.8267	170.864	765.974	269.495	101.791	708.054	277.397	186.276	709.214	248.306	107.859	541.604	272.186	98.8232	525.205	160.871	192.626	778.103	-134.511	130.352	785.854	-146.694	143.167	714.795	-148.43	128.42	544.058	-145.002	106.652	526.199	-32.8931	21.7412	348.25	301.372	-1.16407	287.525	275.028	71.9497	316.234	292.36
251	1.25	82.5553	1583.09	195.286	83.1239	1582.67	-78.621	205.548	1531.87	59.0048	58.5838	1602.11	55.1431	6.1998	1486.53	62.3932	239.567	1026.53	194.317	250.554	1031.75	-47.5375	51.9564	1069.78	115.824	52.1385	1066.46	20.8182	170.861	765.966	269.487	101.798	708.059	277.395	186.236	709.209	248.28	107.836	541.585	272.163	98.7701	525.204	160.813	192.644	778.106	-134.518	130.393	785.84	-146.801	143.152	714.793	-148.441	128.43	544.055	-145.009	106.628	526.2	-32.9111	21.7455	348.259	301.37	-1.14837	287.555	275.051	71.9419	316.231	292.357
252	1.255	82.5131	1583.09	195.255	83.0428	1582.62	-78.5547	205.492	1531.87	58.9703	58.5049	1602.11	55.1022	6.17111	1486.52	62.3767	239.533	1026.57	194.295	250.536	1031.78	-47.5643	51.9229	1069.74	115.776	52.1188	1066.45	20.8082	170.835	765.966	269.486	101.777	708.062	277.387	186.206	709.211	248.274	107.83	541.574	272.125	98.7301	525.206	160.895	192.623	778.122	-134.546	130.343	785.835	-146.724	143.166	714.798	-148.463	128.431	544.073	-145.045	106.688	526.201	-32.917	21.7176	348.292	301.352	-1.17217	287.521	275.021	71.9265	316.212	292.342
253	1.26	82.4483	1583.12	195.258	83.0014	1582.67	-78.6791	205.431	1531.89	58.9463	58.4445	1602.1	55.0712	6.13138	1486.52	62.3564	239.488	1026.55	194.299	250.543	1031.81	-47.5763	51.8991	1069.74	115.789	52.1112	1066.44	20.7474	170.799	765.977	269.47	101.742	708.056	277.364	186.204	709.218	248.225	107.837	541.595	272.14	98.6809	525.178	160.882	192.626	778.121	-134.557	130.354	785.822	-146.73	143.157	714.785	-148.455	128.412	544.084	-145.059	106.642	526.21	-32.9426	21.7304	348.247	301.352	-1.17685	287.534	274.986	71.9207	316.234	292.361
254	1.265	82.4244	1583.12	195.223	82.91	1582.6	-78.6286	205.361	1531.89	58.9324	58.3768	1602.1	55.0495	6.08611	1486.53	62.3141	239.46	1026.55	194.283	250.499	1031.79	-47.5564	51.8718	1069.73	115.751	52.0883	1066.43	20.7633	170.792	765.978	269.465	101.718	708.054	277.358	186.185	709.228	248.233	107.809	541.598	272.091	98.7349	525.245	160.78	192.649	778.127	-134.564	130.346	785.823	-146.773	143.179	714.797	-148.48	128.434	544.07	-145.067	106.674	526.168	-32.9702	21.7169	348.262	301.332	-0.870606	287.507	275.015	71.9051	316.217	292.296
255	1.27	82.3769	1583.1	195.185	82.864	1582.59	-78.6636	205.311	1531.88	58.9194	58.3211	1602.1	55.0355	5.99296	1486.52	62.3317	239.427	1026.58	194.286	250.507	1031.81	-47.559	51.8274	1069.74	115.738	52.0815	1066.42	20.7437	170.784	765.99	269.453	101.72	708.048	277.356	186.163	709.21	248.208	107.782	541.583	272.11	98.6044	525.211	160.872	192.643	778.13	-134.578	130.357	785.815	-146.79	143.158	714.806	-148.492	128.446	544.068	-145.076	106.688	526.21	-32.9584	21.6951	348.246	301.351	-0.86801	287.548	275.039	71.8887	316.237	292.321
256	1.275	82.3069	1583.13	195.169	82.7902	1582.58	-78.6765	205.259	1531.9	58.9124	58.2763	1602.08	54.9936	5.95785	1486.48	62.3102	239.393	1026.57	194.277	250.506	1031.83	-47.5833	51.8146	1069.75	115.723	52.031	1066.43	20.7251	170.766	765.979	269.446	101.715	708.039	277.369	186.132	709.233	248.193	107.777	541.575	272.084	98.5998	525.213	160.889	192.618	778.13	-134.558	130.348	785.818	-146.776	143.162	714.804	-148.492	128.427	544.045	-145.066	106.679	526.197	-32.96	21.6778	348.267	301.329	-0.882003	287.503	274.984	71.8902	316.232	292.318
257	1.28	82.2461	1583.14	195.166	82.7354	1582.62	-78.74	205.235	1531.92	58.9149	58.2166	1602.08	54.9699	5.88928	1486.48	62.3203	239.37	1026.59	194.264	250.454	1031.83	-47.5701	51.768	1069.71	115.699	52.036	1066.41	20.7022	170.742	766.007	269.441	101.688	708.06	277.341	186.147	709.232	248.178	107.795	541.61	272.107	98.6187	525.279	160.77	192.621	778.13	-134.564	130.383	785.85	-146.871	143.16	714.802	-148.506	128.436	544.064	-145.072	106.65	526.195	-32.9703	21.6574	348.268	301.341	-1.22271	287.508	275.001	71.8716	316.249	292.324
258	1.285	82.2296	1583.15	195.135	82.6878	1582.56	-78.6892	205.178	1531.92	58.8817	58.1861	1602.06	54.9722	5.83842	1486.48	62.3036	239.349	1026.6	194.276	250.456	1031.83	-47.5866	51.7621	1069.72	115.663	51.987	1066.4	20.6986	170.728	766.007	269.429	101.668	708.043	277.333	186.105	709.231	248.178	107.77	541.624	272.109	98.4796	525.156	160.886	192.625	778.14	-134.555	130.329	785.82	-146.776	143.171	714.784	-148.496	128.447	544.095	-145.086	106.662	526.199	-32.9679	21.6522	348.282	301.336	-0.909913	287.52	275.013	71.8597	316.217	292.328
